HIERARCHY
ROOT joint_Root
{
	OFFSET 0.0 0.0 0.0
	CHANNELS 6 Xposition Yposition Zposition Zrotation Xrotation Yrotation 
	JOINT Hips
	{
		OFFSET -0.726466 93.3139 -2.00062
		CHANNELS 6 Xposition Yposition Zposition Zrotation Xrotation Yrotation 
		JOINT Spine
		{
			OFFSET 15.7357 0.0 0.0
			CHANNELS 6 Xposition Yposition Zposition Zrotation Xrotation Yrotation 
			JOINT Chest
			{
				OFFSET 8.98455 -0.406207 0.0
				CHANNELS 6 Xposition Yposition Zposition Zrotation Xrotation Yrotation 
				JOINT Neck
				{
					OFFSET 16.3773 0.0 0.0
					CHANNELS 6 Xposition Yposition Zposition Zrotation Xrotation Yrotation 
					JOINT Head
					{
						OFFSET 6.45672 0.0 0.0
						CHANNELS 6 Xposition Yposition Zposition Zrotation Xrotation Yrotation 
						End Site
						{
							OFFSET 0.0 0.0 0.0
						}
					}
				}
				JOINT Shoulder_L
				{
					OFFSET 12.9942 -0.242716 4.98039
					CHANNELS 6 Xposition Yposition Zposition Zrotation Xrotation Yrotation 
					JOINT UpperArm_L
					{
						OFFSET 5.34809 0.0 0.0
						CHANNELS 6 Xposition Yposition Zposition Zrotation Xrotation Yrotation 
						JOINT LowerArm_L
						{
							OFFSET 24.3286 1.87007e-05 0.0
							CHANNELS 6 Xposition Yposition Zposition Zrotation Xrotation Yrotation 
							JOINT Hand_L
							{
								OFFSET 22.2916 0.0 0.0
								CHANNELS 6 Xposition Yposition Zposition Zrotation Xrotation Yrotation 
								End Site
								{
									OFFSET 0.0 0.0 0.0
								}
							}
						}
					}
				}
				JOINT Shoulder_R
				{
					OFFSET 12.9945 -0.242716 -4.98039
					CHANNELS 6 Xposition Yposition Zposition Zrotation Xrotation Yrotation 
					JOINT UpperArm_R
					{
						OFFSET -5.34813 0.0 0.0
						CHANNELS 6 Xposition Yposition Zposition Zrotation Xrotation Yrotation 
						JOINT LowerArm_R
						{
							OFFSET -24.3289 0.000322201 0.0
							CHANNELS 6 Xposition Yposition Zposition Zrotation Xrotation Yrotation 
							JOINT Hand_R
							{
								OFFSET -22.2915 -0.000108084 0.0
								CHANNELS 6 Xposition Yposition Zposition Zrotation Xrotation Yrotation 
								End Site
								{
									OFFSET 0.0 0.0 0.0
								}
							}
						}
					}
				}
			}
		}
		JOINT UpperLeg_L
		{
			OFFSET -2.19248 -6.46944 0.0
			CHANNELS 6 Xposition Yposition Zposition Zrotation Xrotation Yrotation 
			JOINT LowerLeg_L
			{
				OFFSET 39.0811 0.0 -1.23785e-05
				CHANNELS 6 Xposition Yposition Zposition Zrotation Xrotation Yrotation 
				JOINT Foot_L
				{
					OFFSET 40.9854 0.0 -1.26872e-05
					CHANNELS 6 Xposition Yposition Zposition Zrotation Xrotation Yrotation 
					JOINT Toes_L
					{
						OFFSET 11.7543 0.0 0.0
						CHANNELS 6 Xposition Yposition Zposition Zrotation Xrotation Yrotation 
						End Site
						{
							OFFSET 0.0 0.0 0.0
						}
					}
				}
			}
		}
		JOINT UpperLeg_R
		{
			OFFSET -2.19251 6.46944 0.0
			CHANNELS 6 Xposition Yposition Zposition Zrotation Xrotation Yrotation 
			JOINT LowerLeg_R
			{
				OFFSET -39.0811 -0.00228153 -0.0401928
				CHANNELS 6 Xposition Yposition Zposition Zrotation Xrotation Yrotation 
				JOINT Foot_R
				{
					OFFSET -40.9854 0.0 0.0
					CHANNELS 6 Xposition Yposition Zposition Zrotation Xrotation Yrotation 
					JOINT Toes_R
					{
						OFFSET -11.7543 0.0 0.0
						CHANNELS 6 Xposition Yposition Zposition Zrotation Xrotation Yrotation 
						End Site
						{
							OFFSET 0.0 0.0 0.0
						}
					}
				}
			}
		}
	}
}
MOTION
Frames:	6
Frame Time:	0.0333333
0.000000 0.000000 0.000000 0.000000 0.000000 -0.000000 -0.793507 92.382300 -2.169910 88.090200 -0.559134 5.462730 15.735700 0.000005 -0.000001 85.313000 86.274400 -85.219200 8.984550 -0.406207 -0.000000 -0.339169 -0.615349 0.185656 16.377300 -0.000001 -0.000001 4.869250 -2.494180 0.491698 6.456720 -0.000001 -0.000000 2.610740 -1.757100 0.414889 12.994200 -0.242716 4.980390 -86.781900 -10.010500 -72.075700 5.348090 -0.000007 -0.000001 -81.817100 -29.216900 -94.039200 24.328600 0.000019 0.000005 19.009900 0.511463 -88.515800 22.291600 -0.000001 0.000005 20.613700 5.527450 -7.683270 12.994500 -0.242716 -4.980390 90.945700 -2.786400 -71.243900 -5.348130 -0.000001 -0.000004 -73.562100 -24.720100 -99.052600 -24.328900 0.000322 -0.000009 21.842400 3.093210 -82.333900 -22.291500 -0.000108 -0.000004 23.526200 5.374270 -2.119130 -2.192480 -6.469440 -0.000000 -175.442000 -6.094080 -2.369770 39.081100 -0.000007 -0.000012 -0.102934 0.242290 23.017600 40.985400 -0.000006 -0.000013 -0.250068 3.438020 -65.402700 11.754300 -0.000000 0.000003 -0.000025 -0.000308 -16.589600 -2.192510 6.469440 -0.000001 179.700000 12.514600 179.815000 -39.081100 -0.002282 -0.040193 -0.037766 0.113147 19.957500 -40.985400 0.000008 0.000006 3.002450 6.572030 -64.748000 -11.754300 -0.000006 -0.000006 -0.008081 -0.088692 -20.184800
0.000000 0.000000 0.000000 0.000000 0.000000 -0.000000 -0.742081 92.392200 -2.222910 88.092200 -0.622505 5.447740 15.735700 0.000005 -0.000001 85.618600 86.264100 -85.519300 8.984550 -0.406207 -0.000000 -0.315575 -0.577685 0.196990 16.377300 -0.000001 -0.000001 4.874820 -2.534090 0.556395 6.456720 -0.000001 -0.000000 2.600860 -1.790920 0.346362 12.994200 -0.242716 4.980390 -86.787800 -9.997740 -72.085600 5.348090 -0.000007 -0.000001 -81.735700 -29.227100 -94.036100 24.328600 0.000019 0.000005 18.965000 0.557480 -88.378200 22.291600 -0.000001 0.000005 20.499100 5.527180 -7.671630 12.994500 -0.242716 -4.980390 90.962100 -2.822820 -71.169800 -5.348130 -0.000001 -0.000004 -73.534500 -24.732100 -99.151700 -24.328900 0.000322 -0.000009 21.872800 3.164390 -82.171600 -22.291500 -0.000108 -0.000004 23.400900 5.372830 -2.074420 -2.192480 -6.469440 -0.000000 -175.509000 -6.026920 -2.407640 39.081100 -0.000007 -0.000012 -0.101766 0.239920 22.985100 40.985400 -0.000006 -0.000013 -0.241977 3.262880 -65.349300 11.754300 -0.000000 0.000003 -0.000034 -0.000402 -16.593200 -2.192510 6.469440 -0.000001 179.679000 12.455900 179.775000 -39.081100 -0.002282 -0.040193 -0.037247 0.111963 19.917600 -40.985400 0.000008 0.000006 2.978550 6.584820 -64.679100 -11.754300 -0.000006 -0.000006 -0.007867 -0.086942 -20.113300
0.000000 0.000000 0.000000 0.000000 0.000000 -0.000000 -0.712785 92.396400 -2.278520 88.064300 -0.649258 5.425980 15.735700 0.000005 -0.000001 85.597700 86.242100 -85.491100 8.984550 -0.406207 -0.000000 -0.271869 -0.584250 0.211681 16.377300 -0.000001 -0.000001 4.887620 -2.563650 0.590787 6.456720 -0.000001 -0.000000 2.552610 -1.823130 0.358399 12.994200 -0.242716 4.980390 -86.782000 -9.993580 -72.048300 5.348090 -0.000007 -0.000001 -81.663700 -29.207100 -94.085800 24.328600 0.000019 0.000005 19.077400 0.613802 -88.225800 22.291600 -0.000001 0.000005 20.442000 5.526240 -7.630860 12.994500 -0.242716 -4.980390 90.957500 -2.803510 -71.134600 -5.348130 -0.000001 -0.000004 -73.453800 -24.810900 -99.236000 -24.328900 0.000322 -0.000009 21.784600 3.226330 -81.985300 -22.291500 -0.000108 -0.000004 23.341900 5.373780 -2.103840 -2.192480 -6.469440 -0.000000 -175.507000 -6.077680 -2.479640 39.081100 -0.000007 -0.000012 -0.098754 0.232534 23.010400 40.985400 -0.000006 -0.000013 -0.207208 3.298620 -65.325000 11.754300 -0.000000 0.000003 -0.000026 -0.000316 -16.589900 -2.192510 6.469440 -0.000001 179.719000 12.405800 179.705000 -39.081100 -0.002282 -0.040193 -0.035125 0.106135 19.912700 -40.985400 0.000008 0.000006 3.026970 6.554040 -64.634300 -11.754300 -0.000006 -0.000006 -0.008026 -0.088246 -20.166600
0.000000 0.000000 0.000000 0.000000 0.000000 -0.000000 -0.690829 92.405400 -2.347750 88.071000 -0.639011 5.332460 15.735700 0.000005 -0.000001 85.481500 86.254500 -85.382600 8.984550 -0.406207 -0.000000 -0.297679 -0.596978 0.196115 16.377300 -0.000001 -0.000001 4.897010 -2.567020 0.591291 6.456720 -0.000001 -0.000000 2.602780 -1.851430 0.442271 12.994200 -0.242716 4.980390 -86.772300 -9.973910 -71.964900 5.348090 -0.000007 -0.000001 -81.510800 -29.082400 -94.073800 24.328600 0.000019 0.000005 19.049400 0.675504 -88.044500 22.291600 -0.000001 0.000005 20.521800 5.527590 -7.689680 12.994500 -0.242716 -4.980390 90.959400 -2.797410 -71.061100 -5.348130 -0.000001 -0.000004 -73.325300 -24.852400 -99.125600 -24.328900 0.000322 -0.000009 21.718200 3.230310 -81.948900 -22.291500 -0.000108 -0.000004 23.171000 5.374270 -2.119420 -2.192480 -6.469440 -0.000000 -175.540000 -6.058510 -2.617790 39.081100 -0.000007 -0.000012 -0.101011 0.238178 22.981900 40.985400 -0.000006 -0.000013 -0.200983 3.276000 -65.254700 11.754300 -0.000000 0.000003 -0.000024 -0.000300 -16.589300 -2.192510 6.469440 -0.000001 179.733000 12.392700 179.572000 -39.081100 -0.002282 -0.040193 -0.034306 0.103972 19.895500 -40.985400 0.000008 0.000006 3.057230 6.524130 -64.584300 -11.754300 -0.000006 -0.000006 -0.008083 -0.088705 -20.185300
0.000000 0.000000 0.000000 0.000000 0.000000 -0.000000 -0.656022 92.410100 -2.368370 88.063000 -0.662715 5.372530 15.735700 0.000005 -0.000001 85.502600 86.212800 -85.405900 8.984550 -0.406207 -0.000000 -0.214376 -0.600537 0.192137 16.377300 -0.000001 -0.000001 4.926390 -2.576560 0.594767 6.456720 -0.000001 -0.000000 2.624250 -1.892530 0.433556 12.994200 -0.242716 4.980390 -86.772700 -9.935790 -71.902800 5.348090 -0.000007 -0.000001 -81.390000 -29.019700 -94.028400 24.328600 0.000019 0.000005 19.206600 0.691124 -88.017000 22.291600 -0.000001 0.000005 20.510600 5.528960 -7.749430 12.994500 -0.242716 -4.980390 90.952400 -2.771480 -71.026800 -5.348130 -0.000001 -0.000004 -73.066300 -24.955900 -98.876500 -24.328900 0.000322 -0.000009 21.960200 3.248840 -82.000500 -22.291500 -0.000108 -0.000004 23.157500 5.372490 -2.063840 -2.192480 -6.469440 -0.000000 -175.562000 -6.080580 -2.582650 39.081100 -0.000007 -0.000012 -0.097332 0.229627 22.970600 40.985400 -0.000006 -0.000013 -0.167227 3.273610 -65.240300 11.754300 -0.000000 0.000003 -0.000027 -0.000327 -16.590300 -2.192510 6.469440 -0.000001 179.701000 12.428400 179.613000 -39.081100 -0.002282 -0.040193 -0.034476 0.104691 19.851600 -40.985400 0.000008 0.000006 2.985470 6.606320 -64.529700 -11.754300 -0.000006 -0.000006 -0.008145 -0.089215 -20.206100
0.000000 0.000000 0.000000 0.000000 0.000000 -0.000000 -0.629868 92.418600 -2.414000 88.080200 -0.657210 5.353100 15.735700 0.000005 -0.000001 85.483200 86.198900 -85.396400 8.984550 -0.406207 -0.000000 -0.186904 -0.604562 0.172332 16.377300 -0.000001 -0.000001 4.915490 -2.588430 0.566987 6.456720 -0.000001 -0.000000 2.728460 -1.901420 0.419359 12.994200 -0.242716 4.980390 -86.779100 -9.910590 -71.893900 5.348090 -0.000007 -0.000001 -81.269300 -29.014200 -93.880400 24.328600 0.000019 0.000005 19.585400 0.673522 -88.107800 22.291600 -0.000001 0.000005 20.552400 5.530570 -7.820340 12.994500 -0.242716 -4.980390 90.932300 -2.701530 -70.952200 -5.348130 -0.000001 -0.000004 -72.614100 -25.066700 -98.459400 -24.328900 0.000322 -0.000009 22.043600 3.209320 -82.129100 -22.291500 -0.000108 -0.000004 23.139000 5.375260 -2.150230 -2.192480 -6.469440 -0.000000 -175.607000 -6.028840 -2.608530 39.081100 -0.000007 -0.000012 -0.098208 0.232271 22.919500 40.985400 -0.000006 -0.000013 -0.169405 3.196930 -65.185400 11.754300 -0.000000 0.000003 -0.000039 -0.000457 -16.595400 -2.192510 6.469440 -0.000001 179.676000 12.422400 179.585000 -39.081100 -0.002282 -0.040193 -0.035093 0.106633 19.811700 -40.985400 0.000008 0.000006 2.929570 6.591250 -64.472800 -11.754300 -0.000006 -0.000006 -0.007828 -0.086623 -20.100300
